<?xml version="1.0" encoding="UTF-8"?><svg xmlns="http://www.w3.org/2000/svg" xmlns:xlink="http://www.w3.org/1999/xlink" height="127.6" preserveAspectRatio="xMidYMid meet" version="1.0" viewBox="0.0 -0.0 481.2 127.6" width="481.2" zoomAndPan="magnify"><defs><clipPath id="a"><path d="M 192 68 L 199 68 L 199 127.628906 L 192 127.628906 Z M 192 68"/></clipPath><clipPath id="b"><path d="M 31 81 L 38 81 L 38 127.628906 L 31 127.628906 Z M 31 81"/></clipPath><clipPath id="c"><path d="M 109 68 L 116 68 L 116 127.628906 L 109 127.628906 Z M 109 68"/></clipPath><clipPath id="d"><path d="M 431 59 L 481.21875 59 L 481.21875 110 L 431 110 Z M 431 59"/></clipPath><clipPath id="e"><path d="M 437 68 L 444 68 L 444 127.628906 L 437 127.628906 Z M 437 68"/></clipPath><clipPath id="f"><path d="M 276 81 L 283 81 L 283 127.628906 L 276 127.628906 Z M 276 81"/></clipPath><clipPath id="g"><path d="M 355 68 L 361 68 L 361 127.628906 L 355 127.628906 Z M 355 68"/></clipPath></defs><g><g id="change1_1"><path d="M 68.410156 69.410156 C 68.410156 88.300781 53.09375 93.554688 34.203125 93.554688 C 15.3125 93.554688 0 88.300781 0 69.410156 C 0 50.519531 15.3125 25.144531 34.203125 25.144531 C 53.09375 25.144531 68.410156 50.519531 68.410156 69.410156" fill="#ce561e"/></g><g id="change2_1"><path d="M 147.035156 69.410156 C 147.035156 88.300781 131.722656 93.554688 112.832031 93.554688 C 93.941406 93.554688 78.625 88.300781 78.625 69.410156 C 78.625 50.519531 93.941406 -0.00390625 112.832031 -0.00390625 C 131.722656 -0.00390625 147.035156 50.519531 147.035156 69.410156" fill="#7f9838"/></g><g id="change3_1"><path d="M 220.511719 56.144531 C 220.511719 69.859375 209.390625 80.980469 195.671875 80.980469 C 181.957031 80.980469 170.835938 69.859375 170.835938 56.144531 C 170.835938 42.425781 181.957031 31.304688 195.671875 31.304688 C 209.390625 31.304688 220.511719 42.425781 220.511719 56.144531" fill="#edb41a"/></g><g id="change3_2"><path d="M 204.457031 84.769531 C 204.457031 98.488281 193.335938 109.605469 179.621094 109.605469 C 165.902344 109.605469 154.78125 98.488281 154.78125 84.769531 C 154.78125 71.050781 165.902344 59.933594 179.621094 59.933594 C 193.335938 59.933594 204.457031 71.050781 204.457031 84.769531" fill="#edb41a"/></g><g id="change3_3"><path d="M 236.074219 84.769531 C 236.074219 98.488281 224.957031 109.605469 211.238281 109.605469 C 197.523438 109.605469 186.402344 98.488281 186.402344 84.769531 C 186.402344 71.050781 197.523438 59.933594 211.238281 59.933594 C 224.957031 59.933594 236.074219 71.050781 236.074219 84.769531" fill="#edb41a"/></g><g clip-path="url(#a)" id="change4_3"><path d="M 192.71875 71.800781 C 192.71875 89.457031 192.71875 107.117188 192.71875 124.773438 C 192.71875 128.582031 198.625 128.582031 198.625 124.773438 C 198.625 107.117188 198.625 89.457031 198.625 71.800781 C 198.625 67.992188 192.71875 67.992188 192.71875 71.800781" fill="#995f20"/></g><g id="change4_7"><path d="M 209.636719 79.203125 C 204.285156 84.550781 198.9375 89.902344 193.585938 95.253906 C 194.976562 95.253906 196.367188 95.253906 197.761719 95.253906 C 192.410156 89.902344 187.058594 84.550781 181.710938 79.203125 C 179.015625 76.507812 174.835938 80.683594 177.53125 83.378906 C 182.882812 88.730469 188.234375 94.082031 193.585938 99.429688 C 194.722656 100.570312 196.625 100.570312 197.761719 99.429688 C 203.113281 94.082031 208.464844 88.730469 213.8125 83.378906 C 216.511719 80.683594 212.332031 76.507812 209.636719 79.203125" fill="#995f20"/></g><g clip-path="url(#b)" id="change4_6"><path d="M 31.25 84.375 C 31.25 97.839844 31.25 111.308594 31.25 124.773438 C 31.25 128.582031 37.15625 128.582031 37.15625 124.773438 C 37.15625 111.308594 37.15625 97.839844 37.15625 84.375 C 37.15625 80.566406 31.25 80.566406 31.25 84.375" fill="#995f20"/></g><g id="change4_8"><path d="M 48.167969 66.628906 C 42.820312 71.980469 37.46875 77.332031 32.117188 82.679688 C 33.507812 82.679688 34.902344 82.679688 36.292969 82.679688 C 30.941406 77.332031 25.589844 71.980469 20.238281 66.628906 C 17.542969 63.933594 13.367188 68.109375 16.0625 70.804688 C 21.414062 76.15625 26.765625 81.507812 32.117188 86.859375 C 33.253906 87.996094 35.15625 87.996094 36.292969 86.859375 C 41.644531 81.507812 46.996094 76.15625 52.34375 70.804688 C 55.042969 68.109375 50.863281 63.933594 48.167969 66.628906" fill="#995f20"/></g><g clip-path="url(#c)" id="change4_4"><path d="M 109.878906 71.800781 C 109.878906 89.457031 109.878906 107.117188 109.878906 124.773438 C 109.878906 128.582031 115.785156 128.582031 115.785156 124.773438 C 115.785156 107.117188 115.785156 89.457031 115.785156 71.800781 C 115.785156 67.992188 109.878906 67.992188 109.878906 71.800781" fill="#995f20"/></g><g id="change4_9"><path d="M 114.917969 82.679688 C 109.566406 77.332031 104.21875 71.980469 98.867188 66.628906 C 96.167969 63.933594 91.992188 68.109375 94.691406 70.804688 C 100.039062 76.15625 105.390625 81.507812 110.742188 86.859375 C 113.4375 89.554688 117.613281 85.375 114.917969 82.679688" fill="#995f20"/></g><g id="change1_2"><path d="M 313.546875 69.410156 C 313.546875 88.300781 298.234375 93.554688 279.34375 93.554688 C 260.453125 93.554688 245.140625 88.300781 245.140625 69.410156 C 245.140625 50.519531 260.453125 25.144531 279.34375 25.144531 C 298.234375 25.144531 313.546875 50.519531 313.546875 69.410156" fill="#ce561e"/></g><g id="change2_2"><path d="M 392.171875 69.410156 C 392.171875 88.300781 376.859375 93.554688 357.96875 93.554688 C 339.078125 93.554688 323.765625 88.300781 323.765625 69.410156 C 323.765625 50.519531 339.078125 -0.00390625 357.96875 -0.00390625 C 376.859375 -0.00390625 392.171875 50.519531 392.171875 69.410156" fill="#7f9838"/></g><g id="change3_4"><path d="M 465.648438 56.144531 C 465.648438 69.859375 454.527344 80.980469 440.8125 80.980469 C 427.09375 80.980469 415.976562 69.859375 415.976562 56.144531 C 415.976562 42.425781 427.09375 31.304688 440.8125 31.304688 C 454.527344 31.304688 465.648438 42.425781 465.648438 56.144531" fill="#edb41a"/></g><g id="change3_5"><path d="M 449.59375 84.769531 C 449.59375 98.488281 438.476562 109.605469 424.757812 109.605469 C 411.042969 109.605469 399.921875 98.488281 399.921875 84.769531 C 399.921875 71.050781 411.042969 59.933594 424.757812 59.933594 C 438.476562 59.933594 449.59375 71.050781 449.59375 84.769531" fill="#edb41a"/></g><g clip-path="url(#d)" id="change3_6"><path d="M 481.214844 84.769531 C 481.214844 98.488281 470.09375 109.605469 456.378906 109.605469 C 442.660156 109.605469 431.542969 98.488281 431.542969 84.769531 C 431.542969 71.050781 442.660156 59.933594 456.378906 59.933594 C 470.09375 59.933594 481.214844 71.050781 481.214844 84.769531" fill="#edb41a"/></g><g clip-path="url(#e)" id="change4_1"><path d="M 437.859375 71.800781 C 437.859375 89.457031 437.859375 107.117188 437.859375 124.773438 C 437.859375 128.582031 443.765625 128.582031 443.765625 124.773438 C 443.765625 107.117188 443.765625 89.457031 443.765625 71.800781 C 443.765625 67.992188 437.859375 67.992188 437.859375 71.800781" fill="#995f20"/></g><g id="change4_10"><path d="M 454.777344 79.203125 C 449.425781 84.550781 444.074219 89.902344 438.722656 95.253906 C 440.117188 95.253906 441.507812 95.253906 442.898438 95.253906 C 437.550781 89.902344 432.199219 84.550781 426.847656 79.203125 C 424.152344 76.507812 419.976562 80.683594 422.671875 83.378906 C 428.023438 88.730469 433.371094 94.082031 438.722656 99.429688 C 439.859375 100.570312 441.761719 100.570312 442.898438 99.429688 C 448.25 94.082031 453.601562 88.730469 458.953125 83.378906 C 461.648438 80.683594 457.472656 76.507812 454.777344 79.203125" fill="#995f20"/></g><g clip-path="url(#f)" id="change4_5"><path d="M 276.390625 84.375 C 276.390625 97.839844 276.390625 111.308594 276.390625 124.773438 C 276.390625 128.582031 282.296875 128.582031 282.296875 124.773438 C 282.296875 111.308594 282.296875 97.839844 282.296875 84.375 C 282.296875 80.566406 276.390625 80.566406 276.390625 84.375" fill="#995f20"/></g><g id="change4_11"><path d="M 293.308594 66.628906 C 287.957031 71.980469 282.605469 77.332031 277.253906 82.679688 C 278.648438 82.679688 280.039062 82.679688 281.429688 82.679688 C 276.082031 77.332031 270.730469 71.980469 265.378906 66.628906 C 262.683594 63.933594 258.507812 68.109375 261.203125 70.804688 C 266.554688 76.15625 271.902344 81.507812 277.253906 86.859375 C 278.394531 87.996094 280.292969 87.996094 281.429688 86.859375 C 286.78125 81.507812 292.132812 76.15625 297.484375 70.804688 C 300.179688 68.109375 296.003906 63.933594 293.308594 66.628906" fill="#995f20"/></g><g clip-path="url(#g)" id="change4_2"><path d="M 355.015625 71.800781 C 355.015625 89.457031 355.015625 107.117188 355.015625 124.773438 C 355.015625 128.582031 360.921875 128.582031 360.921875 124.773438 C 360.921875 107.117188 360.921875 89.457031 360.921875 71.800781 C 360.921875 67.992188 355.015625 67.992188 355.015625 71.800781" fill="#995f20"/></g><g id="change4_12"><path d="M 360.058594 82.679688 C 354.707031 77.332031 349.355469 71.980469 344.003906 66.628906 C 341.308594 63.933594 337.132812 68.109375 339.828125 70.804688 C 345.179688 76.15625 350.53125 81.507812 355.882812 86.859375 C 358.578125 89.554688 362.753906 85.375 360.058594 82.679688" fill="#995f20"/></g></g></svg>